# xmcd CD database file
#
# Track frame offsets:
#	150
#	12915
#	33280
#	51101
#	59015
#	87134
#	110845
#	135780
#	156168
#	171610
#	184833
#	199740
#	223016
#	233534
#	248501
#	259280
#	272921
#
# Disc length: 3844 seconds
#
# Revision: 0
# Processed by: cddbd v1.5.2PL0 Copyright (c) Steve Scherf et al.
# Submitted via: CDex 1.50
#
DISCID=f00f0211
DTITLE=Various Artist - Jazz In The City [CD2]
DYEAR=2006
DGENRE=Jazz
TTITLE0=Bette Midler/Mambo Italiano
TTITLE1=John Farnham/Come Said The Boy
TTITLE2=Steve Tyrell/As Time Goes By
TTITLE3=Kelly Rowland/I'm Beginning To See The Light
TTITLE4=Sinead O'Connor/Bewitched Bothered and Bewildered
TTITLE5=Eva Cassidy/God Bless The Child
TTITLE6=Luther Vandross/Killing Me Softly
TTITLE7=Aaron Neville/Cry Me A River
TTITLE8=Will Young/Light My Fire
TTITLE9=Keiko Lee/You'd Be So Nice To Come Home To
TTITLE10=Alison Moyet/The First Time Ever I Saw Your Face
TTITLE11=Kyle Eastwood and Diana King/Why Can't We Live Together
TTITLE12=Dannielle Gaha/Blue Skies
TTITLE13=Time Beveridge/Something So Strong
TTITLE14=Tim Draxl/Almost Like Being In Love
TTITLE15=Charlotte Church/Summertime
TTITLE16=Frederika Stahl/A Fraction Of You
EXTD=YEAR: 2006
EXTT0=
EXTT1=
EXTT2=
EXTT3=
EXTT4=
EXTT5=
EXTT6=
EXTT7=
EXTT8=
EXTT9=
EXTT10=
EXTT11=
EXTT12=
EXTT13=
EXTT14=
EXTT15=
EXTT16=
PLAYORDER=
